<?xml version="1.0" encoding="UTF-8"?>
<svg id="Layer_1" data-name="Layer 1" xmlns="http://www.w3.org/2000/svg" viewBox="0 0 32 32">
  <defs>
    <style>
      .cls-1 {
        fill: #171717;
      }

      .cls-1, .cls-2 {
        stroke-width: 0px;
      }

      .cls-2 {
        fill: #fff;
      }
    </style>
  </defs>
  <rect class="cls-2" width="32" height="32"/>
  <g>
    <path class="cls-1" d="m16,5.7c-2.8,0-3.1,0-4.2.1s-1.9.2-2.5.5c-.7.2-1.3.6-1.9,1.2-.5.5-.9,1.1-1.1,1.8-.3.6-.5,1.4-.5,2.5-.1,1.1-.1,1.4-.1,4.2s0,3.1.1,4.2c0,1.1.2,1.8.5,2.5s.6,1.2,1.2,1.8c.6.6,1.1.9,1.8,1.2.7.3,1.4.4,2.5.5s1.4.1,4.2.1,3.1,0,4.2-.1c1.1,0,1.8-.2,2.5-.5s1.2-.6,1.8-1.2c.6-.6.9-1.1,1.2-1.8.3-.7.4-1.4.5-2.5s.1-1.4.1-4.2,0-3.1-.1-4.2c0-1.1-.2-1.8-.5-2.5s-.6-1.2-1.2-1.8-1.1-.9-1.8-1.2c-.7-.3-1.4-.4-2.5-.5-1.1,0-1.4-.1-4.2-.1h0Zm0,1.9c2.7,0,3.1,0,4.2.1,1,0,1.5.2,1.9.4.5.2.8.4,1.2.8.4.4.6.7.8,1.2.1.4.3.9.4,1.9,0,1.1.1,1.4.1,4.2s0,3.1-.1,4.2c0,1-.2,1.5-.4,1.9-.2.5-.4.8-.8,1.2-.4.4-.7.6-1.2.8-.4.1-.9.3-1.9.4-1.1,0-1.4.1-4.2.1s-3.1,0-4.2-.1c-1,0-1.5-.2-1.9-.4-.69-.48-.8-.7-1.1-1-.4-.4-.6-.7-.8-1.2-.1-.4-.3-.9-.4-1.9,0-1.1-.1-1.4-.1-4.2,0-2.7,0-3.1.1-4.2,0-1,.2-1.5.4-1.9.2-.5.4-.8.8-1.2.3-.3.7-.5,1.1-.7.4-.1.9-.3,1.9-.4,1.1,0,1.5,0,4.2,0"/>
    <path class="cls-1" d="m16,19.4c-1.9,0-3.4-1.5-3.4-3.4s1.5-3.4,3.4-3.4,3.4,1.5,3.4,3.4-1.5,3.4-3.4,3.4h0Zm0-8.7c-2.9,0-5.3,2.4-5.3,5.3s2.4,5.3,5.3,5.3,5.3-2.4,5.3-5.3-2.4-5.3-5.3-5.3h0Z"/>
    <path class="cls-1" d="m22.7,10.5c0,.7-.6,1.2-1.2,1.2-.7,0-1.2-.6-1.2-1.2s.5-1.2,1.2-1.2,1.2.6,1.2,1.2h0Z"/>
  </g>
</svg>