<?xml version="1.0" encoding="UTF-8"?>
<svg id="Layer_1" data-name="Layer 1" xmlns="http://www.w3.org/2000/svg" viewBox="0 0 32 32">
  <defs>
    <style>
      .cls-1, .cls-2 {
        stroke-width: 0px;
      }

      .cls-2 {
        fill: #fff;
      }
    </style>
  </defs>
  <rect class="cls-2" width="32" height="32"/>
  <path class="cls-1" d="m22.41,9.72c-1.13-.74-1.94-1.91-2.2-3.29-.05-.3-.09-.6-.09-.91h-3.6v14.43c-.07,1.62-1.4,2.91-3.03,2.91-.51,0-.98-.13-1.4-.35-.96-.51-1.62-1.52-1.62-2.68,0-1.67,1.36-3.03,3.03-3.03.31,0,.61.05.89.14v-3.68c-.29-.04-.59-.06-.89-.06-3.66,0-6.63,2.97-6.63,6.63,0,2.24,1.12,4.23,2.83,5.43,1.08.76,2.39,1.2,3.8,1.2,3.66,0,6.63-2.97,6.63-6.63v-7.32c1.41,1.01,3.14,1.61,5.01,1.61v-3.6c-1.01,0-1.94-.3-2.73-.81Z"/>
</svg>