<?xml version="1.0" encoding="UTF-8"?>
<svg id="Layer_1" data-name="Layer 1" xmlns="http://www.w3.org/2000/svg" viewBox="0 0 32 32">
  <defs>
    <style>
      .cls-1 {
        fill: #fff;
      }

      .cls-1, .cls-2 {
        stroke-width: 0px;
      }

      .cls-2 {
        fill-rule: evenodd;
      }
    </style>
  </defs>
  <rect class="cls-1" width="32" height="32"/>
  <path class="cls-2" d="m23.39,8.57c-1.96-1.96-4.57-3.04-7.34-3.04-5.72,0-10.38,4.66-10.38,10.38,0,1.83.48,3.62,1.39,5.19l-1.47,5.38,5.5-1.44c1.52.83,3.22,1.26,4.96,1.26h0c5.72,0,10.38-4.66,10.38-10.38,0-2.77-1.08-5.38-3.04-7.34h0Zm-7.34,15.97h0c-1.55,0-3.07-.42-4.39-1.2l-.32-.19-3.27.86.87-3.18-.21-.33c-.86-1.37-1.32-2.96-1.32-4.59,0-4.76,3.87-8.63,8.63-8.63,2.3,0,4.47.9,6.1,2.53,1.63,1.63,2.53,3.8,2.52,6.1,0,4.76-3.87,8.63-8.63,8.63h0Zm4.73-6.46c-.26-.13-1.53-.76-1.77-.84-.24-.09-.41-.13-.58.13-.17.26-.67.84-.82,1.02-.15.17-.3.19-.56.06-.26-.13-1.1-.4-2.09-1.29-.77-.69-1.29-1.54-1.44-1.8-.15-.26-.02-.4.11-.53.12-.12.26-.3.39-.45.13-.15.17-.26.26-.43.09-.17.04-.32-.02-.45-.06-.13-.58-1.41-.8-1.93-.21-.51-.42-.44-.58-.45-.15,0-.32,0-.5,0s-.45.06-.69.32c-.24.26-.91.89-.91,2.16s.93,2.51,1.06,2.68c.13.17,1.83,2.79,4.43,3.92.62.27,1.1.43,1.48.55.62.2,1.19.17,1.63.1.5-.07,1.53-.63,1.75-1.23.22-.61.22-1.13.15-1.23s-.24-.17-.5-.3h0Z"/>
</svg>