<?xml version="1.0" encoding="utf-8"?>
<!-- Generator: Adobe Illustrator 28.0.0, SVG Export Plug-In . SVG Version: 6.00 Build 0)  -->
<svg version="1.1" id="Layer_1" xmlns="http://www.w3.org/2000/svg" xmlns:xlink="http://www.w3.org/1999/xlink" x="0px" y="0px"
	 viewBox="0 0 32 32" style="enable-background:new 0 0 32 32;" xml:space="preserve">
<style type="text/css">
	.st0{fill:#FFFFFF;}
	.st1{fill:#171717;}
</style>
<rect class="st0" width="32" height="32"/>
<path id="XMLID_182_" class="st1" d="M26.1,10.9c-0.2-0.9-1-1.6-1.9-1.9C22.6,8.6,16,8.6,16,8.6S9.4,8.6,7.8,9
	c-0.9,0.2-1.6,1-1.9,1.9C5.5,12.6,5.5,16,5.5,16s0,3.4,0.4,5.1c0.2,0.9,1,1.6,1.9,1.9c1.6,0.4,8.2,0.4,8.2,0.4s6.6,0,8.2-0.4
	c0.9-0.2,1.6-1,1.9-1.9c0.4-1.6,0.4-5.1,0.4-5.1S26.5,12.6,26.1,10.9z"/>
<polygon id="XMLID_1355_" class="st0" points="13.9,19.1 19.3,16 13.9,12.9 "/>
</svg>
